<?xml version="1.0" encoding="utf-8"?>
<!-- Generator: Adobe Illustrator 26.0.2, SVG Export Plug-In . SVG Version: 6.00 Build 0)  -->
<svg version="1.1" id="Layer_1" xmlns="http://www.w3.org/2000/svg" xmlns:xlink="http://www.w3.org/1999/xlink" x="0px" y="0px"
	 viewBox="0 0 745 876" style="enable-background:new 0 0 745 876;" xml:space="preserve">
<style type="text/css">
	.st0{fill:#2E3192;}
	.st1{fill:#22B573;stroke:#000000;stroke-miterlimit:10;}
	.st2{fill:#FFFFFF;}
	.st3{fill:#FFFFFF;stroke:#000000;stroke-width:3;stroke-miterlimit:10;}
	.st4{fill:#FFFFFF;stroke:#000000;stroke-width:6;stroke-miterlimit:10;}
	.st5{fill:#2E3192;stroke:#000000;stroke-miterlimit:10;}
	.st6{fill:#F2F2F2;stroke:#000000;stroke-miterlimit:10;}
	.st7{fill:#EDFFB1;stroke:#000000;stroke-miterlimit:10;}
</style>
<g>
	<path class="st0" d="M406,741.5c-82.4,0-159.87-32.09-218.14-90.36S97.5,515.4,97.5,433s32.09-159.87,90.36-218.14
		S323.6,124.5,406,124.5s159.87,32.09,218.14,90.36S714.5,350.6,714.5,433s-32.09,159.88-90.36,218.14S488.4,741.5,406,741.5z"/>
	<path d="M406,127c41.31,0,81.39,8.09,119.11,24.04c36.44,15.41,69.16,37.48,97.27,65.58c28.1,28.1,50.17,60.83,65.58,97.27
		C703.91,351.61,712,391.69,712,433s-8.09,81.39-24.04,119.11c-15.41,36.44-37.48,69.16-65.58,97.27
		c-28.1,28.1-60.83,50.17-97.27,65.58C487.39,730.91,447.31,739,406,739s-81.39-8.09-119.11-24.04
		c-36.44-15.41-69.16-37.48-97.27-65.58c-28.1-28.1-50.17-60.83-65.58-97.27C108.09,514.39,100,474.31,100,433
		s8.09-81.39,24.04-119.11c15.41-36.44,37.48-69.16,65.58-97.27c28.1-28.1,60.83-50.17,97.27-65.58
		C324.61,135.09,364.69,127,406,127 M406,122C234.24,122,95,261.24,95,433s139.24,311,311,311s311-139.24,311-311
		S577.76,122,406,122L406,122z"/>
</g>
<polygon class="st1" points="318.5,174.5 327.5,177.5 336.5,179.5 349.84,179.5 358.55,179.5 368.5,182.5 378.07,182.5 385.5,179.5 
	389.22,182.5 393.5,188.5 389.5,194.5 384.5,198.5 381.5,204.5 381.5,210.5 379.5,218.5 375.5,223.5 375.5,231.5 374.5,236.5 
	379.5,240.5 382.5,243.5 381.5,249.5 384.5,255.5 389.5,252.5 393.5,244.38 397.5,238.5 402.5,232.5 408.5,230.5 403.5,219.5 
	408.5,211.62 417.79,215 425.5,221.5 435.5,225.5 439.5,227.5 444.5,232.5 448.5,235.5 456.5,236.5 456.5,242.64 450.5,251.5 
	444.5,258.5 440.5,264.5 434.5,268.5 431.5,271.5 440.09,271.5 444.5,274.5 446.5,278.5 441.5,282.5 435.5,286.5 427.5,291.5 
	427.5,295.5 433.82,295.5 428.5,299.5 415.5,303.5 426.85,303.5 428.5,305.5 419.5,307.5 412.21,307.5 411.5,310.5 408.5,317.5 
	403.5,313.5 406,321.04 406,328.35 400.5,322.5 400.5,316.5 397.5,324.5 402.5,331.5 404.5,336.5 402.5,340.5 402.5,346.5 
	398.5,352.5 394.5,355.5 391.5,359.5 391.5,362.5 394.5,372.5 397.5,382.5 397.5,388.5 394.5,390.5 389.5,386.5 387.5,377.14 
	384.5,370.5 380.5,365.5 375.5,365.5 367.5,365.5 363.5,363.5 361.5,367.5 364.5,371.5 356.5,371.5 351.5,368.5 346.5,368.5 
	338.5,372.5 333.5,377.5 330.5,384.5 330.5,388.5 330.5,395.5 332.5,402.5 335.5,407.5 339.5,413.5 344.5,417.5 350.5,414.5 
	352.5,406.5 357.5,402.5 361.5,404.5 364.5,408.5 362.5,415.5 364.5,425.5 358.5,430.5 358.5,436.5 363.5,440.5 369.36,440.5 
	375.98,440.5 379.5,444.5 382.5,450.5 383.64,456 384.5,460.5 390.5,464.5 395.49,464.5 402.5,462.5 410.5,466.5 407.5,471.5 
	399.5,468.5 395.5,469.5 397.5,473.5 387.5,471.22 380.5,469.5 377.5,464.5 372.5,459.5 367.27,456 360.3,456 351.5,453.5 
	343.5,451.5 339.5,444.5 336.5,437.5 332.5,435.5 327.89,433 318.5,431.49 312.5,430.5 309.5,422.5 309.5,416.16 304.5,410.5 
	301.5,403.5 297.5,396.5 290.5,389.5 287.5,380.5 287.5,390.03 289.5,399.5 294.5,410.5 300.5,417.5 294.5,417.5 287.5,413.03 
	283.5,404.5 278.5,394.5 282.5,394.5 281.5,387.5 280.5,380.5 278.5,370.86 278.5,366.68 276.5,361.5 272.5,361.5 272.5,356.58 
	265.5,349.5 265.5,342.99 265.5,333.23 263.5,328.5 268.5,332.5 266.5,326.5 269.35,324 265.52,324 263.5,324 263.5,318.94 
	263.5,309.89 263.5,300.48 266.5,295.5 268.5,289.5 268.5,285.5 274.5,287.5 274.5,291.5 277.5,283.5 274.5,273.5 276.5,255.5 
	275.5,250.5 276.5,242.5 274.5,236.5 272.5,231.5 270.5,228.5 267.5,224.5 263.5,223.82 257.5,224.5 252.5,223.5 255.5,218.5 
	260.5,216.5 256.5,213.5 250.5,216.5 242.5,219.5 239.5,217.5 227.5,220.5 216.5,221.5 208.5,220.5 220.5,218.5 230.5,215.5 
	236.5,213.5 232.5,211.5 234.5,208.5 240.5,204.5 246.5,203.5 252.5,200.5 250.5,197.5 246.5,196.5 251.5,192.5 255.5,191.5 
	259.5,194.5 263.5,192.5 262.5,187.5 264.5,181.5 271.5,178.5 281.9,174.5 294.44,174.5 306.5,171.5 "/>
<g>
	<rect x="24.5" y="813.5" class="st2" width="313" height="47"/>
	<path d="M336,815v44H26v-44H336 M339,812H23v50h316V812L339,812z"/>
</g>
<g>
	<rect x="92.5" y="648.5" class="st2" width="62" height="165"/>
	<path d="M153,650v162H94V650H153 M156,647H91v168h65V647L156,647z"/>
</g>
<g>
	<rect x="209.5" y="648.5" class="st2" width="60" height="165"/>
	<path d="M268,650v162h-57V650H268 M271,647h-63v168h63V647L271,647z"/>
</g>
<g>
	<rect x="63.5" y="698.5" class="st2" width="29" height="115"/>
	<path d="M91,700v112H65V700H91 M94,697H62v118h32V697L94,697z"/>
</g>
<g>
	<rect x="269.5" y="698.5" class="st2" width="29" height="115"/>
	<path d="M297,700v112h-26V700H297 M300,697h-32v118h32V697L300,697z"/>
</g>
<g>
	<rect x="117.5" y="291.5" class="st2" width="128" height="357"/>
	<path d="M244,293v354H119V293H244 M247,290H116v360h131V290L247,290z"/>
</g>
<g>
	<rect x="162.5" y="291.5" class="st2" width="39" height="315"/>
	<path d="M200,293v312h-36V293H200 M203,290h-42v318h42V290L203,290z"/>
</g>
<g>
	<rect x="102.5" y="606.5" class="st2" width="15" height="42"/>
	<path d="M116,608v39h-12v-39H116 M119,605h-18v45h18V605L119,605z"/>
</g>
<g>
	<rect x="245.5" y="606.5" class="st2" width="15" height="42"/>
	<path d="M259,608v39h-12v-39H259 M262,605h-18v45h18V605L262,605z"/>
</g>
<g>
	<rect x="126.5" y="225.5" class="st2" width="110" height="66"/>
	<path d="M235,227v63H128v-63H235 M238,224H125v69h113V224L238,224z"/>
</g>
<g>
	<rect x="159.5" y="225.5" class="st2" width="46" height="66"/>
	<path d="M204,227v63h-43v-63H204 M207,224h-49v69h49V224L207,224z"/>
</g>
<g>
	<rect x="135.5" y="190.5" class="st2" width="92" height="35"/>
	<path d="M226,192v32h-89v-32H226 M229,189h-95v38h95V189L229,189z"/>
</g>
<g>
	<rect x="142.5" y="182.5" class="st2" width="80" height="8"/>
	<path d="M221,184v5h-77v-5H221 M224,181h-83v11h83V181L224,181z"/>
</g>
<rect x="159.5" y="140.5" class="st3" width="42" height="42"/>
<rect x="165.5" y="95.5" class="st3" width="29" height="45"/>
<line class="st3" x1="171.5" y1="95.5" x2="171.5" y2="86.5"/>
<line class="st3" x1="187.5" y1="95.5" x2="187.5" y2="86.5"/>
<line class="st3" x1="170.5" y1="87.5" x2="176.5" y2="81.5"/>
<line class="st3" x1="188.5" y1="87.5" x2="183.5" y2="81.5"/>
<line class="st3" x1="175.5" y1="81.5" x2="184.5" y2="81.5"/>
<line class="st4" x1="180" y1="81" x2="180" y2="14"/>
<path class="st5" d="M410.5,466.5"/>
<path class="st1" d="M410.5,466.5l6-6l3.03,3l-2.03,7l2.03,3h4.53l2.44-6.5l-3.14-6.5l3.14-2.18h5.58l9.42-4.82h4.17l5.23,2.5h7.32
	l4.29,2.5l5,1l7-1h5l4,3l6.42,2l6.58-2l4.22,2l6.62,3h3.48l2.68,5l1.85,2h3.14l6.01,3l-5,7l-2,2h4.82l6.18-5h5l3,3l3.59,2l4.41,2h7
	l6,2l4-2l5,2l1,8l2,7l-6,8v9l-3,7l-6,8l-1,11l-9,10l-7,9l-7,5l2,8l-7,9l-9,5l-3,10l-1,7l1,6l-10,5l-7,6h-6.58l-4.42-5l-2-6l-2,5
	l3.19,6l4.81,4l5,5v11l-4,2l-7,2c0,0,0,3,0,4s3.5,5.27,3.5,5.27l2.5,4.73l-2.5,3.28l-3.5,2.72l-4,6l1,5l3,2v5l-5,3l-5,3c0,0,0,4,0,5
	s2,3,2,3l6,3h5.5l6.5,3l-6.5,2.84l-5.5,3.16h-9.7l-6.3-3l-5-7l-4-7.1l-4-6.9l-4-12l-4-11l-4-38l-1-17l-1-17l-4-17l-6-6l-7-6l-9-8
	l-4-11l-4-8l-6-8l-2-11l-2-9l4-8v-9l3-7v-6.83l6-10.17L410.5,466.5z"/>
<polygon class="st1" points="442.5,404.5 451.5,402.5 460.3,403.5 466.57,403.5 472.84,406.76 468.5,408.5 460.5,410.5 
	454.38,410.5 447.06,413.03 448.8,407.76 "/>
<polyline class="st1" points="381.5,405.5 389.5,400.5 398.5,398.5 404.2,398.5 417.09,402 428.59,402 435.21,405.5 424.5,410.5 
	415,413.03 419.53,407.76 410.5,407.76 406,405.76 400.5,404.5 394.5,405.76 396.53,402.5 390.26,402.5 "/>
<path class="st6" d="M390.5,174.5v-8.87l5-4.13l5-2l5.5,1.95l3.5,0.05l6,1v4.5l4.73,4.5l3.27,8l8,2l5,5l7,6v6.23l-8-2.23
	c0,0-7-4-7-1s-2,8-2,8l-7,4h-7.29l2.29-8c0,0,4-4.99,2.5-6s-3.5-1-4.5-3s-7-2.63-6.5-4.31c0.5-1.69-1.5-2.69-1.5-5.69s-2-7-2-7
	l-5.62-2L390.5,174.5z"/>
<polygon class="st6" points="352.5,174.5 358.5,172.5 363.08,174.5 367.5,176.5 372.14,174.5 375.5,169.5 372.5,165.5 372.49,159.5 
	368.66,159.5 361.5,161.5 352.5,164.93 349.15,168 "/>
<path class="st6" d="M339.5,162.5l2.68,5.5c0,0,2.34-4.5,3.83-5.5s7.49-6,8.49-6s4-6,4-6s-3.25,1-4.13,0s-7.87,4-7.87,4l-5,3
	L339.5,162.5z"/>
<path class="st6" d="M396.5,130.5l-6,3.42l-6,2.58c0,0-1,2.47,0,4.74c1,2.26-0.44,5.23-0.44,5.23l3.07,3.9l9.37-3.56v-6.38l5-1.93
	l4.5-3.19l-2.5-4.81H396.5z"/>
<polygon class="st6" points="399.32,150.37 392.5,154.5 390.5,157.96 399.32,155.52 403.5,156.5 406,157.96 408.38,154.17 
	406,150.37 "/>
<path class="st6" d="M379.5,147.5l3.1,2.87l1.46,3.8h4.12v3.8l2.33,3.83l-4,2.7c0,0-0.89,4-2.44,3.5c-1.56-0.5-8.56-5.86-8.56-5.86
	l2.57-4.37l-2.57-5.38L379.5,147.5z"/>
<polygon class="st6" points="364.48,150.37 362.32,154.17 364.48,157.77 369.5,156.5 372.14,157.77 372.14,152.04 367.23,150.37 "/>
<polygon class="st6" points="365.5,145.5 372.14,147.5 375.5,146.5 378.5,142.5 377.02,140.43 370.4,140.43 "/>
<path class="st6" d="M433.5,132.5h-9.09H417l-1.5,5l-5.38,2.93l1.74,3.53l3.14,3.53l-2.79,2.87l4.79,3.8h8.11h4.53l2.09,5.33l7.77,2
	c0,0,3,3.26,4,4.13c1,0.87,4,7.87,4,7.87l5.48,3l5.52,3l4.94,4l3.06-4l-2-6l-5-8l0.1-6l1.39-5.43l-0.7-6.57l1.39-3.53l-2.19-5.47
	l-7.21,1.93l1.21-3.93l-2.96-4l-7.04-2h-5.19L433.5,132.5z"/>
<polygon class="st1" points="456.5,247.51 457.67,252.74 460.5,255.5 460.5,260.41 460.5,262.84 463.5,264.5 467.5,262.5 
	470.5,258.5 475.5,257.5 479.5,257.5 482,253.09 478.5,251.5 475.5,249.5 470.5,250.5 469.25,245.77 464.13,245.77 459.5,242.5 "/>
<polygon class="st1" points="446.5,278.5 446.5,284.1 443.5,286.54 443.5,290.02 446.5,291.42 452.5,288.5 456.5,284.96 
	460.5,283.5 466.5,280.62 461.35,278.5 460.5,274.5 456.5,277.13 452.5,280.5 448.5,279.5 "/>
<polygon class="st1" points="446.5,271.5 448.45,274.5 451.59,274.5 457.67,273 452.09,271.5 "/>
<polygon class="st1" points="274.5,285.5 274.5,282.96 272.5,277.5 272.5,271.5 269.5,268.5 266.91,273 266.91,278.87 269,282.96 
	"/>
<polygon class="st1" points="270.71,253.5 274.5,256.22 272.6,264.5 270.71,260.75 "/>
<polygon class="st1" points="523.5,675.5 520.5,681.5 512.57,678.5 518.03,675.5 "/>
<polygon class="st1" points="528.25,675.5 523.5,681.5 525.87,681.5 533.82,678.5 536.96,678.5 533.82,675.5 "/>
<polygon class="st1" points="490.5,169.5 486.5,173.5 490.5,176.5 488.5,180.5 492.5,185.5 493.5,188.5 495.5,187.5 504.5,186.5 
	510.5,181.5 512.92,176.5 512.92,171.5 509.08,169.5 508.73,168 505.5,166.5 502.5,169.5 495.5,169.5 495.49,171.5 493.5,172.5 "/>
<polygon class="st1" points="556.5,172.5 554.38,177.5 554.5,180.5 556.5,183.5 558.5,186.5 558.5,188.5 562.05,188.5 564.5,186.5 
	567.62,188.5 569.71,188.5 571.5,190.5 569.5,192.5 567.5,194.5 570.06,194.5 573.2,194.5 573.2,198.03 573.2,200.12 578.5,198.5 
	578.5,195.94 581.5,196.5 579.82,200.12 579.5,204.5 579.82,207.5 582.5,202.5 585.5,200.5 589.5,199.5 589.5,195.59 592.5,193.5 
	589.5,192.5 588.53,190 586.79,188.5 584.5,183.5 580.5,184.5 578.5,186.5 575.5,183.5 573.5,183.5 570.5,181.5 566.5,179.5 
	562.5,179.5 561.7,176.5 559.96,171.5 "/>
<polygon class="st1" points="554.38,194.2 559.5,191.5 562.39,192.85 562.39,196.29 568.5,199.5 573.5,203.5 573.5,207.5 
	570.5,210.93 566.5,215.5 562.44,210.23 562.44,207.5 558.56,207.5 554.5,205.5 554.38,200.82 552.5,197.5 "/>
<polygon class="st1" points="599.5,195.5 597.5,198.5 598.5,203.5 594.45,207.5 589.5,205.5 592.5,210.58 594.5,211.97 594.5,215.5 
	592.5,217.2 589.5,219.64 587.5,222.5 589.92,222.5 593.5,222.5 597.5,221.5 603.16,222.5 608.5,226.5 611.5,230.5 611.5,232.88 
	609.5,234.5 603.5,238.5 600.5,241.5 601.5,245.5 599.5,248.5 601.5,251.5 601.5,251.5 605.5,253.5 606.5,256.5 609.5,259.5 
	611.5,262.5 613.5,259.5 618.5,264.5 623.5,261.5 628.5,261.5 629.5,257.5 631.5,255.5 631.5,253.5 632.5,249.5 632.5,244.5 
	630.5,239.5 628.5,233.5 629.5,230.5 627.5,226.5 622.5,222.5 624.5,217.5 612.5,206.5 "/>
<path class="st7" d="M652.5,251.5l-3.69,2l-5.31,3l-2,4l-5.23,4h-5.92l-1.74,4v3v3l-0.1,5l-1.99,3.46l-4.18,8.46v3.48l2.17,3.6v5v7
	l-2.17,4.26v5.92l3.17,6.81l3,4l4,3.82v4.18c0,0-1,2.28,0,3.14c1,0.86,3,2.86,3,2.86h3.9l4.1,4l3,4v4l2,2l4,3.7h5.72l5.28,3.3l6,2
	h5.09l5.91-3l5-3l2-6v-1.67l5-0.33l4-2l5-5l-10-28l-7-16l-6.42-12.08L666.93,273l-10.43-16.5L652.5,251.5z"/>
<polygon class="st5" points="358.5,301.17 362.32,301.17 366.5,297.5 369.7,299.34 372.84,299.34 375.5,301.17 371.5,303.5 
	369.36,303.5 369.5,306.5 370.5,311.5 371.5,314.5 375.5,311.63 373.19,306 377.5,301.5 379.5,301.5 381.5,303.26 381.5,306 
	381.5,310 383,310 385.73,306 385.5,303.5 390.5,302.92 385.5,299.5 381.5,297.5 377.5,299.5 374.5,297.5 372.5,295.5 369.5,293.5 
	365.17,293.5 362.32,295.6 "/>
<polygon class="st5" points="380.16,314.5 381.5,316.51 383,316.51 387.48,315.5 390.5,312.32 390.5,308.14 385.33,312.32 "/>
<polygon class="st5" points="394.5,305.7 400.37,304 403.5,302.5 406,299.08 402.11,299.08 398.28,299.08 394.5,302.39 "/>
<path class="st5" d="M343.22,264.5l-3.72,4l-2.9,3c0,0,2.9,1,2.9,3s0,6.12,0,6.12l-2.9,4.88h3.31c0,0,3.82-1.08,4.7-2.54
	c0.88-1.46,4.38,2.54,4.38,2.54v-6.63l-3.34-4.37l-1.05-6L343.22,264.5z"/>
<path class="st5" d="M304.5,232.5l7,2c0,0,4,2,5,2s6.42-1,7.21,0s6.97-2,6.97-2l5.92-2c0,0-1.78-3-2.44-2.5
	c-0.66,0.5-5.66,1.5-5.66,1.5l-4.44-1.5l-0.56-4.5l-2.95-2.38l-4.05,0.38l-4,2l-0.29,4.41h-5.58l-5.14-1.41L304.5,232.5z"/>
<path class="st5" d="M315.35,189.5l5.23-1l2.09,3v4h-2.44l-1.17,2.19l7.45,1.81h6v2.72l-4.61,1.28l-1.39,4h-5.58l-5.58-2.5
	l-2.85-3.5l-4.47,2l-3.53-4c0,0,3.45-5,4.23-4c0.77,1,4.53,0,4.53,0l-2.09-4L315.35,189.5z"/>
<g>
	<rect x="153.5" y="649.5" class="st2" width="56" height="164"/>
	<path d="M208,651v161h-53V651H208 M211,648h-59v167h59V648L211,648z"/>
</g>
</svg>
